<svg width="44" height="44" viewBox="0 0 44 44" fill="none" xmlns="http://www.w3.org/2000/svg">
<g id="bell 1">
<path id="Vector" d="M33 14.6667C33 11.7493 31.8411 8.9514 29.7782 6.8885C27.7153 4.8256 24.9174 3.66667 22 3.66667C19.0826 3.66667 16.2847 4.8256 14.2218 6.8885C12.1589 8.9514 11 11.7493 11 14.6667C11 27.5 5.5 31.1667 5.5 31.1667H38.5C38.5 31.1667 33 27.5 33 14.6667Z" stroke="#FAFAFA" stroke-width="3.66667" stroke-linecap="round" stroke-linejoin="round"/>
<path id="Vector_2" d="M25.1716 38.5C24.8493 39.0556 24.3867 39.5169 23.8301 39.8375C23.2734 40.1581 22.6423 40.3268 22 40.3268C21.3576 40.3268 20.7265 40.1581 20.1699 39.8375C19.6133 39.5169 19.1506 39.0556 18.8283 38.5" stroke="#FAFAFA" stroke-width="3.66667" stroke-linecap="round" stroke-linejoin="round"/>
</g>
</svg>
