<svg width="44" height="44" viewBox="0 0 44 44" fill="none" xmlns="http://www.w3.org/2000/svg">
<g id="trash-2 2">
<path id="Vector" d="M5.5 11H9.16667M9.16667 11H38.5M9.16667 11L9.16667 36.6666C9.16667 37.6391 9.55297 38.5717 10.2406 39.2593C10.9282 39.947 11.8609 40.3333 12.8333 40.3333H31.1667C32.1391 40.3333 33.0718 39.947 33.7594 39.2593C34.447 38.5717 34.8333 37.6391 34.8333 36.6666V11M14.6667 11V7.33329C14.6667 6.36083 15.053 5.4282 15.7406 4.74057C16.4282 4.05293 17.3609 3.66663 18.3333 3.66663H25.6667C26.6391 3.66663 27.5718 4.05293 28.2594 4.74057C28.947 5.4282 29.3333 6.36083 29.3333 7.33329V11" stroke="#FF5454" stroke-width="3.66667" stroke-linecap="round" stroke-linejoin="round"/>
<path id="Vector_2" d="M18.3334 20.1666V31.1666" stroke="#FF5454" stroke-width="3.66667" stroke-linecap="round" stroke-linejoin="round"/>
<path id="Vector_3" d="M25.6666 20.1666V31.1666" stroke="#FF5454" stroke-width="3.66667" stroke-linecap="round" stroke-linejoin="round"/>
</g>
</svg>
